<svg width="122" height="122" viewBox="0 0 122 122" fill="none" xmlns="http://www.w3.org/2000/svg">
<g filter="url(#filter0_d_11_94)">
<circle cx="61" cy="61" r="44" stroke="#02DB8A" stroke-width="2" shape-rendering="crispEdges"/>
</g>
<circle cx="61" cy="61" r="34" stroke="#099260" stroke-width="2"/>
<path d="M44.718 66.078C44.51 66.078 44.2717 66.0693 44.003 66.052C43.743 66.0433 43.4743 66.026 43.197 66C42.9283 65.974 42.6683 65.948 42.417 65.922C42.1743 65.896 41.9663 65.8613 41.793 65.818V64.804C42.0183 64.8213 42.287 64.8387 42.599 64.856C42.9197 64.8733 43.2577 64.8863 43.613 64.895C43.977 64.9037 44.328 64.908 44.666 64.908C45.0387 64.908 45.368 64.8733 45.654 64.804C45.9487 64.7347 46.1783 64.6047 46.343 64.414C46.5163 64.2233 46.603 63.9547 46.603 63.608V63.049C46.603 62.659 46.4947 62.36 46.278 62.152C46.07 61.944 45.7493 61.84 45.316 61.84H44.341C43.509 61.84 42.8633 61.658 42.404 61.294C41.9533 60.93 41.728 60.306 41.728 59.422V58.902C41.728 57.9833 41.975 57.329 42.469 56.939C42.9717 56.5403 43.6823 56.341 44.601 56.341C44.9043 56.341 45.2293 56.3583 45.576 56.393C45.9227 56.419 46.2607 56.4537 46.59 56.497C46.9193 56.5403 47.1923 56.5837 47.409 56.627V57.641C47.019 57.615 46.5813 57.589 46.096 57.563C45.6193 57.5283 45.1687 57.511 44.744 57.511C44.38 57.511 44.0637 57.5543 43.795 57.641C43.535 57.719 43.3313 57.862 43.184 58.07C43.0453 58.278 42.976 58.5727 42.976 58.954V59.344C42.976 59.812 43.1017 60.137 43.353 60.319C43.6043 60.501 43.9553 60.592 44.406 60.592H45.459C46.005 60.592 46.4513 60.6917 46.798 60.891C47.1533 61.0903 47.4177 61.3633 47.591 61.71C47.7643 62.0567 47.851 62.451 47.851 62.893V63.569C47.851 64.245 47.7123 64.765 47.435 65.129C47.1577 65.493 46.785 65.7443 46.317 65.883C45.849 66.013 45.316 66.078 44.718 66.078ZM51.6344 66V57.589H48.7744V56.419H55.8074V57.589H52.9474V66H51.6344ZM55.7481 66L58.9461 56.419H60.6101L63.8081 66H62.4431L61.5981 63.491H57.9321L57.1001 66H55.7481ZM58.2441 62.308H61.2731L59.7651 57.563L58.2441 62.308ZM65.1306 66V56.419H68.9656C69.295 56.419 69.6113 56.458 69.9146 56.536C70.2266 56.614 70.504 56.757 70.7466 56.965C70.9893 57.173 71.18 57.4677 71.3186 57.849C71.4573 58.2217 71.5266 58.7113 71.5266 59.318C71.5266 59.812 71.4746 60.2237 71.3706 60.553C71.2666 60.8823 71.128 61.1467 70.9546 61.346C70.79 61.5367 70.6036 61.684 70.3956 61.788C70.1963 61.8833 69.997 61.957 69.7976 62.009L71.7086 66H70.3826L68.6146 62.191C68.4846 62.191 68.3243 62.191 68.1336 62.191C67.9516 62.1823 67.7566 62.178 67.5486 62.178C67.3493 62.178 67.15 62.1737 66.9506 62.165C66.76 62.1563 66.591 62.152 66.4436 62.152V66H65.1306ZM66.4436 61.138H68.7576C68.9656 61.138 69.1563 61.1163 69.3296 61.073C69.503 61.021 69.6546 60.93 69.7846 60.8C69.9233 60.6613 70.0316 60.475 70.1096 60.241C70.1876 59.9983 70.2266 59.6907 70.2266 59.318C70.2266 58.954 70.1876 58.6593 70.1096 58.434C70.0316 58.2087 69.9233 58.0353 69.7846 57.914C69.646 57.7927 69.49 57.7103 69.3166 57.667C69.1433 57.615 68.957 57.589 68.7576 57.589H66.4436V61.138ZM75.235 66V57.589H72.375V56.419H79.408V57.589H76.548V66H75.235Z" fill="white"/>
<defs>
<filter id="filter0_d_11_94" x="0" y="0" width="122" height="122" filterUnits="userSpaceOnUse" color-interpolation-filters="sRGB">
<feFlood flood-opacity="0" result="BackgroundImageFix"/>
<feColorMatrix in="SourceAlpha" type="matrix" values="0 0 0 0 0 0 0 0 0 0 0 0 0 0 0 0 0 0 127 0" result="hardAlpha"/>
<feOffset/>
<feGaussianBlur stdDeviation="8"/>
<feComposite in2="hardAlpha" operator="out"/>
<feColorMatrix type="matrix" values="0 0 0 0 0.00784314 0 0 0 0 0.858824 0 0 0 0 0.541176 0 0 0 1 0"/>
<feBlend mode="normal" in2="BackgroundImageFix" result="effect1_dropShadow_11_94"/>
<feBlend mode="normal" in="SourceGraphic" in2="effect1_dropShadow_11_94" result="shape"/>
</filter>
</defs>
</svg>
